<?xml version="1.0" encoding="UTF-8" standalone="no"?>
<!-- Created with Inkscape (http://www.inkscape.org/) -->

<svg
   xmlns:dc="http://purl.org/dc/elements/1.1/"
   xmlns:cc="http://creativecommons.org/ns#"
   xmlns:rdf="http://www.w3.org/1999/02/22-rdf-syntax-ns#"
   xmlns:svg="http://www.w3.org/2000/svg"
   xmlns="http://www.w3.org/2000/svg"
   version="1.1"
   width="1024"
   height="395"
   viewBox="-2.7515625 -2.7515625 251.78438 97.221875"
   id="svg257728">
  <metadata
     id="metadata9">
    <rdf:RDF>
      <cc:Work
         rdf:about="">
        <dc:format>image/svg+xml</dc:format>
        <dc:type
           rdf:resource="http://purl.org/dc/dcmitype/StillImage" />
        <dc:title></dc:title>
      </cc:Work>
    </rdf:RDF>
  </metadata>
  <defs
     id="defs257730" />
  <path
     d="m 0,0 0,91.71875 246.28125,0 L 246.28125,0 0,0 z"
     id="path257190"
     style="fill:#ff9900;fill-opacity:1;fill-rule:nonzero;stroke:none" />
  <path
     d="m 218.4925,40.97125 c -0.16749,-0.6425 -0.41874,-1.3675 -0.61375,-1.73 0,0 0.11125,-0.1125 0.335,0.0275 0.2225,0.14 1.64626,1.11625 1.64626,1.11625 0.72624,1.06125 1.1725,5.41625 1.19999,6.98 -0.67,-0.3075 -1.61875,-0.8375 -2.23374,-1.425 l -0.33376,-4.96875 z m -4.3,-4.04875 c -1.17375,-1.28375 -2.14999,-2.485 -3.1,-3.9075 0.615,-1.17375 1.0625,-4.2725 0.7825,-5.4725 -0.11125,-0.36375 -1.1175,-1.70375 -1.28499,-1.89875 -0.25126,-0.25125 -1.06001,-1.1725 -1.45125,-1.1725 -0.0837,0 -0.1675,0.0288 -0.19626,0.0562 l 0.11251,1.0325 c -1.08875,0.6975 -2.5125,1.6475 -3.7975,2.59625 0,0.3625 0.0275,0.92 0.0563,1.1175 0.19499,0.16625 0.41874,0.30625 0.66999,0.39125 0.50251,-0.085 2.06625,-0.47625 2.48375,-0.42 l -1.53374,2.3175 -1.76,1.25625 -2.20501,-0.6975 c -0.14,-0.0287 -0.27999,0 -0.36375,0.11125 l -1.61875,1.76 c -0.0838,0.0825 -0.14,0.16625 -0.14,0.36125 l -0.0563,1.98375 c 0,0 -0.0275,0.30625 -0.0275,0.64125 0,1.42375 0.64125,2.09375 0.64125,2.09375 l 1.0625,-1.53625 c -0.14125,-0.2225 -0.39249,-0.83625 -0.44874,-1.115 0,-0.0563 0.0287,-1.70375 0.0287,-1.70375 l 1.03375,-0.755 2.73625,1.9275 c 0,0 0.75375,1.39625 1.48,2.23375 0.47375,0.58625 2.84625,2.1775 3.99126,2.8475 0.11249,0.615 0.36375,1.61875 0.55874,2.14875 l 3.35125,3.435 -1.98249,2.48375 c -0.6975,0.4475 -1.36876,1.2575 -1.3125,2.01125 l 2.28999,0 0.25126,-1.3125 2.73625,-3.0425 c 0.13999,-0.1675 0.13999,-0.2525 0.0563,-0.50375 l -0.7825,-2.62375 c 0.39125,-0.4475 1.22749,-1.5625 1.22749,-2.90375 0,-2.42875 -2.65125,-3.0425 -3.48875,-3.74125 z M 201.85125,31.925 c -0.0837,0.0287 -2.12124,0.58625 -2.12124,0.58625 0,0 -0.95001,0.36375 -1.36876,0.6425 -0.41875,0.28 -0.89375,0.75375 -0.92125,1.005 l 1.81375,0.41875 c 0.28,-0.3075 0.5875,-0.64125 0.86625,-0.86625 l 0.41875,-0.19375 1.5075,-1.53625 c 0,0 -0.0562,-0.0838 -0.195,-0.0562 z m 8.57126,15.69125 2.56874,-2.45625 1.06125,1.06 -2.76499,2.345 c -0.22251,0.27875 -0.39,0.72625 -0.53001,1.005 l -2.03749,0 c 0.11249,-0.75375 1.1725,-1.7025 1.7025,-1.95375 z m 13.65374,5.1925 -27.27874,0 0,-0.89375 27.27874,0 0,0.89375 z m -76.4475,-12.7875 c 0,-1.67375 -0.53125,-2.9875 -1.98125,-2.9875 -1.45375,0 -2.04,1.31375 -2.04,2.9875 l 0,11.02875 1.705,0 0,1.75875 -9.32624,0 0,-1.75875 1.72999,0 0,-15.1875 -1.72999,0 0,-1.70375 7.3425,0 0,2.8475 0.0837,0 c 0.6975,-1.5625 2.3175,-3.20875 4.91499,-3.20875 2.73626,0 4.41,1.67375 4.94125,3.87875 0.19625,0.86625 0.25251,2.29 0.25251,3.015 l 0,10.35875 2.23249,0 0,1.75875 -8.125,0 0,-12.7875 z m -37.88875,0 c 0,-1.67375 -0.53,-2.9875 -1.98125,-2.9875 -1.4525,0 -2.03875,1.31375 -2.03875,2.9875 l 0,11.02875 1.70375,0 0,1.75875 -9.32625,0 0,-1.75875 1.73125,0 0,-15.1875 -1.73125,0 0,-1.70375 7.34375,0 0,2.8475 0.0825,0 c 0.69875,-1.5625 2.31875,-3.20875 4.915,-3.20875 2.73625,0 4.41125,1.67375 4.94125,3.87875 0.19625,0.86625 0.2525,2.29 0.2525,3.015 l 0,10.35875 2.23375,0 0,1.75875 -8.12625,0 0,-12.7875 z m 53.915,-4.15875 0,13.79125 c 0,0.95 0.615,1.17375 1.2,1.17375 0.55875,0 1.09125,-0.195 1.09125,-0.195 l 0,1.70125 c 0,0 -1.11875,0.69875 -3.6025,0.69875 -2.90375,0 -4.6075,-1.425 -4.6075,-4.44 l 0,-12.73 -1.9825,0 0,-1.2575 c 2.205,-1.7575 4.775,-3.77 6.8125,-5.47125 l 1.08875,0 0,5.025 2.84875,0 0,1.70375 -2.84875,0 z M 47.28125,24.47125 c 0,0 4.49626,4.49375 6.56125,6.81125 l 0,1.76 C 51.91751,31.00375 47.92375,29.3 44.21,29.3 c -8.40375,0 -13.68125,6.33875 -13.68125,14.18375 0,7.81625 4.9975,14.155 13.68125,14.155 4.32751,0 7.79,-2.03875 9.71625,-4.13125 l 0,1.67375 c -2.625,3.6025 -7.42625,5.9475 -13.40125,5.9475 -10.695,0 -18.065,-7.76125 -18.065,-17.645 0,-9.8825 8.18126,-17.6175 18.065,-17.6175 2.51375,0 4.775,0.41875 6.75625,1.1175 l 0,-2.5125 z m 85.885,23.36875 c -0.83875,0.97625 -2.14999,1.73 -4.105,1.73 -1.70374,0 -4.3275,-0.95 -4.43875,-5.27625 l 9.96751,0 c 0.0275,-0.335 0.055,-1.00625 0.055,-1.34125 0,-5.2475 -2.14874,-9.155 -7.76124,-9.155 -5.64001,0 -8.51626,4.32625 -8.51626,9.715 0,5.3875 2.87625,9.63125 8.51626,9.63125 3.63,0 5.91874,-1.7025 7.25999,-4.38375 l -0.9775,-0.92 z m -8.54375,-5.36125 c 0,-4.91375 0.39125,-6.75625 2.065,-6.75625 1.705,0 2.04,1.78625 2.09375,6.75625 l -4.15875,0 z M 42.42375,43.4275 c 0,-5.695 0.53001,-8.2075 2.45625,-8.2075 1.92625,0 2.4575,2.5125 2.4575,8.2075 0,5.69625 -0.53125,8.2075 -2.4575,8.2075 -1.92624,0 -2.45625,-2.51125 -2.45625,-8.2075 z m -6.925,0.0563 c 0,5.64 3.46125,10.21875 9.38125,10.21875 5.91875,0 9.38126,-4.57875 9.38126,-10.21875 0,-5.64 -3.46251,-10.2175 -9.38126,-10.2175 -5.92,0 -9.38125,4.5775 -9.38125,10.2175 z M 67.4675,40.0213 c 0,-1.67375 -0.53,-2.9875 -1.98125,-2.9875 -1.45125,0 -2.03875,1.31375 -2.03875,2.9875 l 0,11.02875 1.70375,0 0,1.75875 -9.32625,0 0,-1.75875 1.73125,0 0,-15.1875 -1.73125,0 0,-1.70375 7.34375,0 0,2.8475 0.0838,0 c 0.6975,-1.5625 2.3175,-3.20875 4.91375,-3.20875 2.73626,0 4.41251,1.67375 4.94126,3.87875 0.19499,0.86625 0.25124,2.29 0.25124,3.015 l 0,10.35875 2.235,0 0,1.75875 -8.12625,0 0,-12.7875 z M 88.325,29.2163 c 0,1.6475 1.48,2.7375 3.6025,2.7375 2.12126,0 3.60125,-1.09 3.60125,-2.7375 0,-1.645 -1.48,-2.735 -3.60125,-2.735 -2.1225,0 -3.6025,1.09 -3.6025,2.735 z m -4.83,6.64625 0,13.79125 c 0,0.95 0.61375,1.17375 1.20126,1.17375 0.5575,0 1.08749,-0.195 1.08749,-0.195 l 0,1.70125 c 0,0 -1.11499,0.69875 -3.59999,0.69875 -2.90375,0 -4.6075,-1.425 -4.6075,-4.44 l 0,-12.73 -1.98251,0 0,-1.2575 c 2.20625,-1.7575 4.77501,-3.77 6.81126,-5.47125 l 1.08999,0 0,5.025 2.28875,0 0,1.70375 -2.28875,0 z m 108.92001,15.1875 2.28875,0 0,1.75875 -8.18125,0 0,-23.84375 -2.0375,0 0,-1.70125 7.93,0 0,23.78625 z m -15.74876,-7.4825 c -0.16749,-0.1675 -0.53125,-0.39125 -1.28499,-0.39125 -1.7575,0 -2.14875,1.7325 -2.14875,3.51875 0,1.75875 0.53,3.1825 2.03749,3.1825 0.72626,0 1.17376,-0.3075 1.39625,-0.55875 l 0,-5.75125 z m 0.25251,7.0075 -0.085,0 c -1.08875,1.535 -2.53999,2.56875 -4.77375,2.56875 -3.04374,0 -4.9425,-2.59625 -4.9425,-5.695 0,-3.74125 2.6525,-6.115 6.89626,-6.115 1.73124,0 2.65249,0.3925 2.65249,0.3925 l 0,-1.175 c 0,-2.26 -1.39625,-3.46125 -3.43374,-3.46125 -2.82126,0 -4.27126,2.17875 -4.27126,2.17875 l -1.03375,-1.25625 c 1.87001,-2.905 4.74501,-4.215 7.42625,-4.215 4.52501,0 7.20375,2.67875 7.20375,6.75375 l 0,10.49875 1.89751,0 0,1.75875 -7.53625,0 0,-2.23375 z m -89.6825,2.23375 0,-1.75875 1.70374,0 0,-15.1875 -1.70374,0 0,-1.70375 7.59499,0 0,16.89125 1.73125,0 0,1.75875"
     id="path257224"
     style="fill:#000000;fill-opacity:1;fill-rule:nonzero;stroke:none" />
</svg>
